<?xml version="1.0" encoding="UTF-8" standalone="no"?>
<!-- Created with Inkscape (http://www.inkscape.org/) -->

<svg
   xmlns:dc="http://purl.org/dc/elements/1.1/"
   xmlns:cc="http://creativecommons.org/ns#"
   xmlns:rdf="http://www.w3.org/1999/02/22-rdf-syntax-ns#"
   xmlns:svg="http://www.w3.org/2000/svg"
   xmlns="http://www.w3.org/2000/svg"
   xmlns:sodipodi="http://sodipodi.sourceforge.net/DTD/sodipodi-0.dtd"
   xmlns:inkscape="http://www.inkscape.org/namespaces/inkscape"
   width="43.09164mm"
   height="36.568939mm"
   viewBox="0 0 152.68692 129.57498"
   id="svg3368"
   version="1.1"
   inkscape:version="0.91 r13725"
   sodipodi:docname="feu.svg">
  <defs
     id="defs3370" />
  <sodipodi:namedview
     id="base"
     pagecolor="#ffffff"
     bordercolor="#666666"
     borderopacity="1.0"
     inkscape:pageopacity="0.0"
     inkscape:pageshadow="2"
     inkscape:zoom="0.35"
     inkscape:cx="-631.51467"
     inkscape:cy="-46.928585"
     inkscape:document-units="px"
     inkscape:current-layer="layer1"
     showgrid="false"
     fit-margin-top="0"
     fit-margin-left="0"
     fit-margin-right="0"
     fit-margin-bottom="0"
     inkscape:window-width="1920"
     inkscape:window-height="1031"
     inkscape:window-x="0"
     inkscape:window-y="0"
     inkscape:window-maximized="1" />
  <metadata
     id="metadata3373">
    <rdf:RDF>
      <cc:Work
         rdf:about="">
        <dc:format>image/svg+xml</dc:format>
        <dc:type
           rdf:resource="http://purl.org/dc/dcmitype/StillImage" />
        <dc:title></dc:title>
      </cc:Work>
    </rdf:RDF>
  </metadata>
  <g
     inkscape:label="Calque 1"
     inkscape:groupmode="layer"
     id="layer1"
     transform="translate(-535.0861,-355.85864)">
    <path
       style="fill:#000000"
       d="m 615.22037,357.56809 c 0.81911,1.30104 12.41693,21.71553 25.77292,45.36553 13.356,23.65 29.34526,51.8875 35.53168,62.75 l 11.24805,19.75 -76.34346,0 -76.34346,0 38.06183,-63.75 c 20.93401,-35.0625 38.62913,-64.36449 39.32249,-65.11553 1.05254,-1.14011 1.50651,-0.97502 2.74995,1 z m -23.69634,73.36553 -21.59487,36 20.43239,0.27008 c 11.23782,0.14855 29.91206,0.14855 41.49831,0 l 21.06592,-0.27008 -19.74455,-36.17072 c -10.85949,-19.8939 -19.81604,-36.0939 -19.90344,-36 -0.0874,0.0939 -9.87658,16.37072 -21.75376,36.17072 z"
       id="path3387"
       inkscape:connector-curvature="0" />
  </g>
</svg>
